<svg width="21" height="21" viewBox="0 0 21 21" fill="none" xmlns="http://www.w3.org/2000/svg">
<path d="M4.25 1.75H16.75C18.135 1.75 19.25 2.865 19.25 4.25V16.75C19.25 18.135 18.135 19.25 16.75 19.25H4.25C2.865 19.25 1.75 18.135 1.75 16.75V4.25C1.75 2.865 2.865 1.75 4.25 1.75Z" stroke="#F0F0F0" stroke-width="1.28125" stroke-linecap="round" stroke-linejoin="round"/>
<path d="M5.5 5.5H6.75" stroke="#F0F0F0" stroke-width="1.28125" stroke-linecap="round" stroke-linejoin="round"/>
<path d="M8 6.75C7.66848 6.75 7.35054 6.6183 7.11612 6.38388C6.8817 6.14946 6.75 5.83152 6.75 5.5C6.75 5.16848 6.8817 4.85054 7.11612 4.61612C7.35054 4.3817 7.66848 4.25 8 4.25C8.16415 4.25 8.3267 4.28233 8.47835 4.34515C8.63001 4.40797 8.76781 4.50004 8.88388 4.61612C8.99996 4.73219 9.09203 4.86999 9.15485 5.02165C9.21767 5.1733 9.25 5.33585 9.25 5.5C9.25 5.66415 9.21767 5.8267 9.15485 5.97835C9.09203 6.13001 8.99996 6.26781 8.88388 6.38388C8.76781 6.49996 8.63001 6.59203 8.47835 6.65485C8.3267 6.71767 8.16415 6.75 8 6.75Z" stroke="#F0F0F0" stroke-width="1.28125" stroke-linecap="round" stroke-linejoin="round"/>
<path d="M9.25 5.50003L15.5 5.5" stroke="#F0F0F0" stroke-width="1.28125" stroke-linecap="round" stroke-linejoin="round"/>
<path d="M15.5 10.5H14.25" stroke="#F0F0F0" stroke-width="1.28125" stroke-linecap="round" stroke-linejoin="round"/>
<path d="M13 11.75C13.3315 11.75 13.6495 11.6183 13.8839 11.3839C14.1183 11.1495 14.25 10.8315 14.25 10.5C14.25 10.1685 14.1183 9.85054 13.8839 9.61612C13.6495 9.3817 13.3315 9.25 13 9.25C12.6685 9.25 12.3505 9.3817 12.1161 9.61612C11.8817 9.85054 11.75 10.1685 11.75 10.5C11.75 10.8315 11.8817 11.1495 12.1161 11.3839C12.3505 11.6183 12.6685 11.75 13 11.75Z" stroke="#F0F0F0" stroke-width="1.28125" stroke-linecap="round" stroke-linejoin="round"/>
<path d="M11.75 10.5L5.5 10.5" stroke="#F0F0F0" stroke-width="1.28125" stroke-linecap="round" stroke-linejoin="round"/>
<path d="M5.5 15.5H6.75" stroke="#F0F0F0" stroke-width="1.28125" stroke-linecap="round" stroke-linejoin="round"/>
<path d="M8 16.75C7.66848 16.75 7.35054 16.6183 7.11612 16.3839C6.8817 16.1495 6.75 15.8315 6.75 15.5C6.75 15.1685 6.8817 14.8505 7.11612 14.6161C7.35054 14.3817 7.66848 14.25 8 14.25C8.16415 14.25 8.3267 14.2823 8.47835 14.3452C8.63001 14.408 8.76781 14.5 8.88388 14.6161C8.99996 14.7322 9.09203 14.87 9.15485 15.0216C9.21767 15.1733 9.25 15.3358 9.25 15.5C9.25 15.6642 9.21767 15.8267 9.15485 15.9784C9.09203 16.13 8.99996 16.2678 8.88388 16.3839C8.76781 16.5 8.63001 16.592 8.47835 16.6548C8.3267 16.7177 8.16415 16.75 8 16.75Z" stroke="#F0F0F0" stroke-width="1.28125" stroke-linecap="round" stroke-linejoin="round"/>
<path d="M9.25 15.5L15.5 15.5" stroke="#F0F0F0" stroke-width="1.28125" stroke-linecap="round" stroke-linejoin="round"/>
</svg>
