<svg width="21" height="21" viewBox="0 0 21 21" fill="none" xmlns="http://www.w3.org/2000/svg">
<g clip-path="url(#clip0_1_13632)">
<path d="M10.5027 0.5C11.9378 0.500873 13.354 0.843755 14.6451 1.50292C15.9363 2.16208 17.0687 3.1204 17.9576 4.30596C18.8465 5.49152 19.4687 6.87354 19.7774 8.3483C20.0862 9.82306 20.0736 11.3523 19.7404 12.8211C19.4073 14.29 18.7624 15.6604 17.8541 16.8296C16.9458 17.9987 15.7976 18.9361 14.4958 19.5715C13.194 20.207 11.7723 20.5239 10.3374 20.4985C8.90259 20.4731 7.49185 20.106 6.21107 19.4249L6.06734 19.3436L1.73765 20.4811C1.65432 20.5032 1.56744 20.5059 1.48301 20.4892C1.39857 20.4725 1.31858 20.4367 1.24857 20.3843C1.17855 20.3319 1.12018 20.2641 1.07747 20.1857C1.03476 20.1072 1.00873 20.02 1.00119 19.9299V19.8274L1.01782 19.7236L2.09876 15.1687L2.02392 15.0187C1.48035 13.8926 1.14574 12.6678 1.03801 11.4099L1.00831 10.9324L1 10.4999C1 7.84779 2.00118 5.30427 3.78329 3.42892C5.5654 1.55356 7.98246 0.5 10.5027 0.5ZM10.5027 1.74999C9.05175 1.74975 7.62595 2.14907 6.36704 2.90829C5.10812 3.6675 4.05992 4.76018 3.32659 6.07773C2.59325 7.39528 2.20033 8.89184 2.18685 10.4187C2.17338 11.9455 2.53982 13.4495 3.24978 14.7812C3.30489 14.8847 3.33085 15.0027 3.32461 15.1212L3.30798 15.2387L2.40997 19.0149L6.00201 18.0724C6.07503 18.0534 6.1508 18.0492 6.22532 18.0599L6.33342 18.0861L6.43676 18.1349C7.54543 18.788 8.78158 19.1651 10.0503 19.2372C11.319 19.3092 12.5866 19.0744 13.7556 18.5506C14.9247 18.0269 15.9641 17.2281 16.7941 16.2158C17.6241 15.2035 18.2226 14.0044 18.5436 12.7107C18.8646 11.4171 18.8996 10.0632 18.646 8.75306C18.3923 7.44292 17.8567 6.21139 17.0803 5.15302C16.3039 4.09465 15.3073 3.2376 14.1671 2.64769C13.0268 2.05777 11.7733 1.75068 10.5027 1.74999ZM11.0967 11.7499C11.2451 11.7496 11.3882 11.8078 11.4979 11.9131C11.6076 12.0183 11.6758 12.1629 11.6893 12.3185C11.7027 12.474 11.6602 12.6292 11.5704 12.7535C11.4805 12.8777 11.3496 12.9621 11.2036 12.9899L11.0967 12.9999H7.53314C7.38472 13.0002 7.24158 12.942 7.1319 12.8368C7.02223 12.7316 6.95396 12.5869 6.94055 12.4314C6.92714 12.2759 6.96956 12.1207 7.05945 11.9964C7.14934 11.8721 7.28019 11.7878 7.42623 11.7599L7.53314 11.7499H11.0967ZM13.4724 7.99996C13.6208 7.99967 13.7639 8.05787 13.8736 8.16309C13.9833 8.26831 14.0515 8.41294 14.0649 8.56848C14.0784 8.72402 14.0359 8.87921 13.946 9.00349C13.8562 9.12777 13.7253 9.21212 13.5793 9.23995L13.4724 9.24995H7.53314C7.38472 9.25024 7.24158 9.19204 7.1319 9.08681C7.02223 8.98159 6.95396 8.83697 6.94055 8.68143C6.92714 8.52588 6.96956 8.37069 7.05945 8.24641C7.14934 8.12214 7.28019 8.03778 7.42623 8.00996L7.53314 7.99996H13.4724Z" fill="white"/>
</g>
<defs>
<clipPath id="clip0_1_13632">
<rect width="20" height="20" fill="white" transform="translate(0.5 0.5)"/>
</clipPath>
</defs>
</svg>
