<svg width="20" height="20" viewBox="0 0 20 20" fill="none" xmlns="http://www.w3.org/2000/svg">
<path d="M10.0027 0C11.4378 0.000872762 12.854 0.343755 14.1451 1.00292C15.4363 1.66208 16.5687 2.6204 17.4576 3.80596C18.3465 4.99152 18.9687 6.37354 19.2774 7.8483C19.5862 9.32306 19.5736 10.8523 19.2404 12.3211C18.9073 13.79 18.2624 15.1604 17.3541 16.3296C16.4458 17.4987 15.2976 18.4361 13.9958 19.0715C12.694 19.707 11.2723 20.0239 9.83743 19.9985C8.40259 19.9731 6.99185 19.606 5.71107 18.9249L5.56734 18.8436L1.23765 19.9811C1.15432 20.0032 1.06744 20.0059 0.983006 19.9892C0.898568 19.9725 0.818581 19.9367 0.748566 19.8843C0.678551 19.8319 0.620175 19.7641 0.577466 19.6857C0.534757 19.6072 0.508732 19.52 0.501188 19.4299V19.3274L0.517818 19.2236L1.59876 14.6687L1.52392 14.5187C0.980345 13.3926 0.645736 12.1678 0.538011 10.9099L0.508315 10.4324L0.5 9.99994C0.5 7.34779 1.50118 4.80427 3.28329 2.92892C5.0654 1.05356 7.48246 0 10.0027 0ZM10.0027 1.24999C8.55175 1.24975 7.12595 1.64907 5.86704 2.40829C4.60812 3.1675 3.55992 4.26018 2.82659 5.57773C2.09325 6.89528 1.70033 8.39184 1.68685 9.91868C1.67338 11.4455 2.03982 12.9495 2.74978 14.2812C2.80489 14.3847 2.83085 14.5027 2.82461 14.6212L2.80798 14.7387L1.90997 18.5149L5.50201 17.5724C5.57503 17.5534 5.6508 17.5492 5.72532 17.5599L5.83342 17.5861L5.93676 17.6349C7.04543 18.288 8.28158 18.6651 9.55031 18.7372C10.819 18.8092 12.0866 18.5744 13.2556 18.0506C14.4247 17.5269 15.4641 16.7281 16.2941 15.7158C17.1241 14.7035 17.7226 13.5044 18.0436 12.2107C18.3646 10.9171 18.3996 9.56319 18.146 8.25306C17.8923 6.94292 17.3567 5.71139 16.5803 4.65302C15.8039 3.59465 14.8073 2.7376 13.6671 2.14769C12.5268 1.55777 11.2733 1.25068 10.0027 1.24999ZM10.5967 11.2499C10.7451 11.2496 10.8882 11.3078 10.9979 11.4131C11.1076 11.5183 11.1758 11.6629 11.1893 11.8185C11.2027 11.974 11.1602 12.1292 11.0704 12.2535C10.9805 12.3777 10.8496 12.4621 10.7036 12.4899L10.5967 12.4999H7.03314C6.88472 12.5002 6.74158 12.442 6.6319 12.3368C6.52223 12.2316 6.45396 12.0869 6.44055 11.9314C6.42714 11.7759 6.46956 11.6207 6.55945 11.4964C6.64934 11.3721 6.78019 11.2878 6.92623 11.2599L7.03314 11.2499H10.5967ZM12.9724 7.49996C13.1208 7.49967 13.2639 7.55787 13.3736 7.66309C13.4833 7.76831 13.5515 7.91294 13.5649 8.06848C13.5784 8.22402 13.5359 8.37921 13.446 8.50349C13.3562 8.62777 13.2253 8.71212 13.0793 8.73995L12.9724 8.74995H7.03314C6.88472 8.75024 6.74158 8.69204 6.6319 8.58681C6.52223 8.48159 6.45396 8.33697 6.44055 8.18143C6.42714 8.02588 6.46956 7.87069 6.55945 7.74641C6.64934 7.62214 6.78019 7.53778 6.92623 7.50996L7.03314 7.49996H12.9724Z" fill="#282828"/>
</svg>
