<svg width="33" height="33" viewBox="0 0 33 33" fill="none" xmlns="http://www.w3.org/2000/svg">
<path d="M14.1465 22.4436L14.5 22.7971L14.8535 22.4436L23.8595 13.4396L24.2143 13.0849L23.8584 12.7313L22.2624 11.1453L21.9089 10.794L21.5565 11.1464L14.5 18.2029L11.4436 15.1464L11.09 14.7929L10.7365 15.1464L9.14645 16.7364L8.7929 17.09L9.14645 17.4436L14.1465 22.4436ZM8.99981 5.27516C11.2199 3.79176 13.83 3 16.5 3C20.0804 3 23.5142 4.42232 26.0459 6.95406C28.5777 9.4858 30 12.9196 30 16.5C30 19.17 29.2082 21.7801 27.7248 24.0002C26.2414 26.2203 24.133 27.9506 21.6662 28.9724C19.1994 29.9942 16.485 30.2615 13.8663 29.7406C11.2475 29.2197 8.84207 27.934 6.95406 26.0459C5.06606 24.1579 3.78031 21.7525 3.25941 19.1337C2.7385 16.515 3.00585 13.8006 4.02763 11.3338C5.04942 8.86697 6.77974 6.75856 8.99981 5.27516Z" stroke="#F2B71F"/>
</svg>
