<svg width="32" height="32" viewBox="0 0 32 32" fill="none" xmlns="http://www.w3.org/2000/svg">
<path d="M29.4821 8.62383L19.4821 3.12383C19.3344 3.0426 19.1686 3 19.0001 3C18.8315 3 18.6657 3.0426 18.5181 3.12383L8.51805 8.62383C8.36127 8.71015 8.23052 8.83698 8.13946 8.99106C8.0484 9.14515 8.00037 9.32085 8.00037 9.49983C8.00037 9.67881 8.0484 9.85451 8.13946 10.0086C8.23052 10.1627 8.36127 10.2895 8.51805 10.3758L17.482 15.3059C17.8015 15.4816 18.0001 15.8174 18.0001 16.1821V24.6185C18.0001 25.3791 17.1845 25.8612 16.5181 25.4946L15.8394 25.1213C15.3559 24.8554 14.7484 25.0316 14.4822 25.515C14.216 25.9986 14.3923 26.6066 14.8761 26.8727L18.5181 28.8758C18.6657 28.9572 18.8315 28.9999 19.0001 28.9999C19.1686 28.9999 19.3344 28.9572 19.4821 28.8758L29.4821 23.3758C29.6389 23.2895 29.7697 23.1627 29.8608 23.0087C29.9519 22.8546 30 22.6788 30.0001 22.4998V9.49983C30 9.32082 29.9519 9.14509 29.8608 8.99101C29.7697 8.83692 29.6389 8.71011 29.4821 8.62383ZM18.5182 5.4068C18.8182 5.24181 19.1819 5.24181 19.4819 5.4068L25.3316 8.62358C26.0225 9.00349 26.0225 9.99617 25.3316 10.3761L19.4819 13.5929C19.1819 13.7579 18.8182 13.7579 18.5182 13.5929L12.6685 10.3761C11.9777 9.99617 11.9777 9.00349 12.6685 8.62358L18.5182 5.4068ZM28.0001 21.3176C28.0001 21.6822 27.8015 22.018 27.482 22.1938L21.482 25.4938C20.8155 25.8603 20.0001 25.3782 20.0001 24.6176V16.1811C20.0001 15.8164 20.1986 15.4806 20.5181 15.3049L26.5181 12.0049C27.1846 11.6383 28.0001 12.1205 28.0001 12.8811V21.3176Z" fill="#F5F5F5"/>
<path d="M10 15C10 15.5523 9.55228 16 9 16H3C2.44772 16 2 15.5523 2 15C2 14.4477 2.44772 14 3 14H9C9.55228 14 10 14.4477 10 15ZM12 23C12 23.5523 11.5523 24 11 24H5C4.44772 24 4 23.5523 4 23C4 22.4477 4.44772 22 5 22H11C11.5523 22 12 22.4477 12 23ZM14 19C14 19.5523 13.5523 20 13 20H7C6.44772 20 6 19.5523 6 19C6 18.4477 6.44772 18 7 18H13C13.5523 18 14 18.4477 14 19Z" fill="#F5F5F5"/>
</svg>
