<svg width="22" height="22" viewBox="0 0 22 22" fill="none" xmlns="http://www.w3.org/2000/svg">
<g clip-path="url(#clip0_157_48734)">
<path d="M11.0004 1.22266C9.06658 1.22266 7.17614 1.79611 5.5682 2.87051C3.96025 3.94491 2.70701 5.47199 1.96695 7.25864C1.22689 9.0453 1.03326 11.0113 1.41054 12.908C1.78782 14.8047 2.71906 16.5469 4.08651 17.9144C5.45395 19.2818 7.19619 20.2131 9.09289 20.5903C10.9896 20.9676 12.9556 20.774 14.7422 20.0339C16.5289 19.2939 18.056 18.0406 19.1304 16.4327C20.2048 14.8247 20.7782 12.9343 20.7782 11.0004C20.7782 8.40721 19.7481 5.92019 17.9144 4.0865C16.0807 2.25281 13.5937 1.22266 11.0004 1.22266ZM11.0004 19.556C9.30831 19.556 7.65418 19.0542 6.24723 18.1141C4.84027 17.174 3.74369 15.8378 3.09614 14.2745C2.44859 12.7112 2.27916 10.9909 2.60928 9.33133C2.93939 7.67171 3.75423 6.14726 4.95075 4.95074C6.14726 3.75423 7.67172 2.93939 9.33133 2.60927C10.9909 2.27915 12.7112 2.44858 14.2745 3.09613C15.8378 3.74368 17.174 4.84027 18.1141 6.24722C19.0542 7.65418 19.556 9.30831 19.556 11.0004C19.556 13.2695 18.6546 15.4456 17.0501 17.0501C15.4457 18.6546 13.2695 19.556 11.0004 19.556Z" fill="#282828"/>
<path d="M11.1774 5.45081C10.5152 5.43987 9.8587 5.57491 9.25455 5.84635C8.65041 6.1178 8.11347 6.51897 7.68188 7.02137C7.62192 7.07693 7.57372 7.14396 7.54013 7.21849C7.50654 7.29302 7.48825 7.37353 7.48633 7.45526C7.48629 7.53066 7.50141 7.60529 7.53081 7.67473C7.5602 7.74416 7.60326 7.80698 7.65743 7.85943C7.71159 7.91189 7.77575 7.95291 7.8461 7.98006C7.91644 8.00721 7.99152 8.01994 8.06688 8.01748C8.22832 8.01348 8.3827 7.95042 8.50077 7.84026C8.82739 7.4575 9.23305 7.15006 9.68984 6.93907C10.1466 6.72808 10.6437 6.61855 11.1469 6.61803C12.5891 6.61803 13.4874 7.54692 13.4874 8.70192V8.73248C13.4874 10.083 12.4119 10.8347 10.713 10.963C10.6442 10.9657 10.5767 10.9828 10.515 11.0134C10.4533 11.0439 10.3988 11.0871 10.3549 11.1402C10.3111 11.1933 10.279 11.255 10.2606 11.3214C10.2423 11.3877 10.2382 11.4572 10.2486 11.5253C10.2486 11.5253 10.2486 12.943 10.2486 13.2058C10.2638 13.3571 10.3348 13.4972 10.4478 13.5989C10.5608 13.7006 10.7076 13.7566 10.8597 13.7558H10.9269C11.0781 13.7406 11.2183 13.6696 11.32 13.5566C11.4217 13.4436 11.4776 13.2967 11.4769 13.1447V11.8858C13.3102 11.6291 14.7952 10.6636 14.7952 8.65914V8.62859C14.7769 6.79526 13.3469 5.45081 11.1774 5.45081Z" fill="#282828"/>
<path d="M10.8655 16.7748C11.2873 16.7748 11.6293 16.4328 11.6293 16.011C11.6293 15.5891 11.2873 15.2471 10.8655 15.2471C10.4436 15.2471 10.1016 15.5891 10.1016 16.011C10.1016 16.4328 10.4436 16.7748 10.8655 16.7748Z" fill="#282828"/>
</g>
<defs>
<clipPath id="clip0_157_48734">
<rect width="22" height="22" fill="white"/>
</clipPath>
</defs>
</svg>
