<svg width="36" height="37" viewBox="0 0 36 37" fill="none" xmlns="http://www.w3.org/2000/svg">
<g clip-path="url(#clip0_1_13872)">
<path d="M18 2.5C14.8355 2.5 11.7421 3.43838 9.11088 5.19649C6.4797 6.95459 4.42894 9.45345 3.21793 12.3771C2.00693 15.3007 1.69008 18.5177 2.30744 21.6214C2.92481 24.7251 4.44866 27.5761 6.6863 29.8137C8.92394 32.0513 11.7749 33.5752 14.8786 34.1926C17.9823 34.8099 21.1993 34.4931 24.1229 33.2821C27.0466 32.0711 29.5454 30.0203 31.3035 27.3891C33.0616 24.7579 34 21.6645 34 18.5C34 14.2565 32.3143 10.1869 29.3137 7.18629C26.3131 4.18571 22.2435 2.5 18 2.5ZM18 32.5C15.2311 32.5 12.5243 31.6789 10.222 30.1406C7.91974 28.6022 6.12532 26.4157 5.06569 23.8576C4.00607 21.2994 3.72882 18.4845 4.26901 15.7687C4.80921 13.053 6.14258 10.5584 8.10051 8.6005C10.0584 6.64257 12.553 5.3092 15.2687 4.76901C17.9845 4.22881 20.7994 4.50606 23.3576 5.56569C25.9157 6.62531 28.1022 8.41973 29.6406 10.722C31.1789 13.0243 32 15.7311 32 18.5C32 22.213 30.525 25.774 27.8995 28.3995C25.274 31.025 21.713 32.5 18 32.5Z" fill="white"/>
<path d="M18.29 9.41995C17.2064 9.40204 16.1321 9.62303 15.1435 10.0672C14.1549 10.5114 13.2762 11.1678 12.57 11.99C12.4719 12.0809 12.393 12.1906 12.338 12.3125C12.2831 12.4345 12.2531 12.5662 12.25 12.7C12.2499 12.8233 12.2747 12.9455 12.3228 13.0591C12.3709 13.1727 12.4413 13.2755 12.53 13.3613C12.6186 13.4472 12.7236 13.5143 12.8387 13.5587C12.9538 13.6032 13.0767 13.624 13.2 13.62C13.4642 13.6134 13.7168 13.5102 13.91 13.33C14.4445 12.7036 15.1083 12.2005 15.8558 11.8553C16.6032 11.51 17.4166 11.3308 18.24 11.33C20.6 11.33 22.07 12.85 22.07 14.74V14.79C22.07 17 20.31 18.23 17.53 18.44C17.4174 18.4443 17.3071 18.4724 17.2061 18.5223C17.1051 18.5723 17.0158 18.643 16.9441 18.7299C16.8723 18.8167 16.8197 18.9177 16.7897 19.0263C16.7597 19.1349 16.753 19.2486 16.77 19.36C16.77 19.36 16.77 21.68 16.77 22.11C16.7949 22.3575 16.9111 22.5868 17.096 22.7533C17.2809 22.9197 17.5212 23.0112 17.77 23.01H17.88C18.1275 22.9851 18.3569 22.8688 18.5233 22.6839C18.6897 22.499 18.7812 22.2587 18.78 22.01V19.95C21.78 19.53 24.21 17.95 24.21 14.67V14.62C24.18 11.62 21.84 9.41995 18.29 9.41995Z" fill="white"/>
<path d="M17.78 27.9502C18.4704 27.9502 19.03 27.3906 19.03 26.7002C19.03 26.0098 18.4704 25.4502 17.78 25.4502C17.0897 25.4502 16.53 26.0098 16.53 26.7002C16.53 27.3906 17.0897 27.9502 17.78 27.9502Z" fill="white"/>
</g>
<defs>
<clipPath id="clip0_1_13872">
<rect width="36" height="36" fill="white" transform="translate(0 0.5)"/>
</clipPath>
</defs>
</svg>
