<svg width="54" height="47" viewBox="0 0 54 47" fill="none" xmlns="http://www.w3.org/2000/svg">
<circle cx="26.6328" cy="23.5" r="22.7167" stroke="#FF2260" stroke-width="1.56667"/>
<g clip-path="url(#clip0_157_48799)">
<path d="M26.703 26.4151C24.1196 23.3842 21.6935 20.5406 19.2674 17.6943C19.1625 17.7246 19.0576 17.7549 18.9555 17.7852C18.9555 23.3043 18.9555 28.8234 18.9555 34.4444C17.7631 34.4444 16.7723 34.4444 15.6738 34.4444C15.6461 33.9319 15.602 33.4829 15.602 33.0338C15.5965 26.8642 15.6241 20.6949 15.5744 14.5255C15.5661 13.4013 15.8449 13.0569 17.0262 12.999C18.6215 12.9246 19.7035 13.4013 20.6971 14.6688C22.5767 17.0688 24.6248 19.3392 26.7363 21.8219C28.428 19.849 30.0151 17.9973 31.6021 16.1457C32.0245 15.6525 32.6947 14.8399 33.1586 14.3314C34.7566 12.5805 35.5601 12.9025 37.63 13.2029C33.9371 17.6639 30.3877 21.9596 26.703 26.4151Z" fill="#FF2260"/>
<path d="M26.6742 29.0914C30.3559 24.6696 33.9326 20.3744 37.7331 15.8125C37.7331 22.2266 37.7331 28.2834 37.7331 34.4445C36.7125 34.4445 35.7166 34.4445 34.5466 34.4445C34.5466 31.2183 34.5466 28.0114 34.5466 24.8069C34.4249 24.752 34.3003 24.6943 34.1786 24.6393C31.7086 27.5827 29.2384 30.5287 26.6244 33.6421C25.9355 32.8534 25.3132 32.1445 24.6907 31.4326C23.9577 30.5946 23.2275 29.7536 22.4972 28.9153C20.0519 26.1069 20.0547 26.1069 20.4198 21.8721C22.5719 24.3509 24.5719 26.662 26.6742 29.0914Z" fill="#FF2260"/>
</g>
<defs>
<clipPath id="clip0_157_48799">
<rect width="53.2667" height="34.4667" fill="white"/>
</clipPath>
</defs>
</svg>
