<svg width="59" height="59" viewBox="0 0 59 59" fill="none" xmlns="http://www.w3.org/2000/svg">
<rect width="59" height="59" rx="10" fill="#EB275E"/>
<path d="M36.5769 24.875H34.1257V17.1667C34.1257 16.3188 33.4319 15.625 32.584 15.625H26.4173C25.5694 15.625 24.8757 16.3188 24.8757 17.1667V24.875H22.4244C21.0523 24.875 20.3586 26.54 21.3298 27.5113L28.4061 34.5875C29.0073 35.1888 29.9786 35.1888 30.5798 34.5875L37.6561 27.5113C38.6273 26.54 37.949 24.875 36.5769 24.875ZM18.709 40.2917C18.709 41.1396 19.4027 41.8333 20.2507 41.8333H38.7507C39.5986 41.8333 40.2923 41.1396 40.2923 40.2917C40.2923 39.4438 39.5986 38.75 38.7507 38.75H20.2507C19.4027 38.75 18.709 39.4438 18.709 40.2917Z" fill="#F5F5F5"/>
</svg>
