<svg width="36" height="36" viewBox="0 0 36 36" fill="none" xmlns="http://www.w3.org/2000/svg">
<path d="M18.0001 34C18.0001 34 29.1946 24.6429 29.1946 14.8209C29.1946 7.81689 24.1829 3 18.0001 3C11.8173 3 6.80566 7.81689 6.80566 14.8209C6.80566 24.6429 18.0001 34 18.0001 34Z" stroke="#F5F5F5" stroke-width="3" stroke-linejoin="round"/>
<path d="M18 18.4998C19.1419 18.4998 20.2371 18.0462 21.0445 17.2387C21.8519 16.4313 22.3056 15.3361 22.3056 14.1942C22.3056 13.0523 21.8519 11.9572 21.0445 11.1497C20.2371 10.3423 19.1419 9.88867 18 9.88867C16.8581 9.88867 15.763 10.3423 14.9555 11.1497C14.1481 11.9572 13.6945 13.0523 13.6945 14.1942C13.6945 15.3361 14.1481 16.4313 14.9555 17.2387C15.763 18.0462 16.8581 18.4998 18 18.4998Z" stroke="#F5F5F5" stroke-width="3" stroke-linejoin="round"/>
</svg>
