<svg width="26" height="35" viewBox="0 0 26 35" fill="none" xmlns="http://www.w3.org/2000/svg">
<path d="M13.0001 33C13.0001 33 24.1946 23.6429 24.1946 13.8209C24.1946 6.81689 19.1829 2 13.0001 2C6.81733 2 1.80566 6.81689 1.80566 13.8209C1.80566 23.6429 13.0001 33 13.0001 33Z" stroke="#EB275E" stroke-width="3" stroke-linejoin="round"/>
<path d="M13 17.4999C14.1419 17.4999 15.2371 17.0463 16.0445 16.2388C16.8519 15.4314 17.3056 14.3363 17.3056 13.1943C17.3056 12.0524 16.8519 10.9573 16.0445 10.1499C15.2371 9.34241 14.1419 8.88879 13 8.88879C11.8581 8.88879 10.763 9.34241 9.95553 10.1499C9.14808 10.9573 8.69446 12.0524 8.69446 13.1943C8.69446 14.3363 9.14808 15.4314 9.95553 16.2388C10.763 17.0463 11.8581 17.4999 13 17.4999Z" stroke="#EB275E" stroke-width="3" stroke-linejoin="round"/>
</svg>
