<svg width="33" height="33" viewBox="0 0 33 33" fill="none" xmlns="http://www.w3.org/2000/svg">
<path d="M16.5 2.5C13.7311 2.5 11.0243 3.32109 8.72202 4.85943C6.41973 6.39777 4.62532 8.58427 3.56569 11.1424C2.50607 13.7006 2.22882 16.5155 2.76901 19.2313C3.30921 21.947 4.64258 24.4416 6.60051 26.3995C8.55845 28.3574 11.053 29.6908 13.7687 30.231C16.4845 30.7712 19.2994 30.4939 21.8576 29.4343C24.4157 28.3747 26.6022 26.5803 28.1406 24.278C29.6789 21.9757 30.5 19.2689 30.5 16.5C30.5 12.787 29.025 9.22601 26.3995 6.6005C23.774 3.975 20.213 2.5 16.5 2.5ZM14.5 22.09L9.50001 17.09L11.09 15.5L14.5 18.91L21.91 11.5L23.506 13.086L14.5 22.09Z" fill="#F2B71F"/>
</svg>
