<svg width="29" height="29" viewBox="0 0 29 29" fill="none" xmlns="http://www.w3.org/2000/svg">
<path d="M12.1465 20.4436L12.5 20.7971L12.8535 20.4436L21.8595 11.4396L22.2143 11.0849L21.8584 10.7313L20.2624 9.14534L19.9089 8.794L19.5565 9.14645L12.5 16.2029L9.44356 13.1464L9.09001 12.7929L8.73645 13.1464L7.14645 14.7364L6.7929 15.09L7.14645 15.4436L12.1465 20.4436ZM6.99981 3.27516C9.21987 1.79176 11.83 1 14.5 1C18.0804 1 21.5142 2.42232 24.0459 4.95406C26.5777 7.4858 28 10.9196 28 14.5C28 17.17 27.2082 19.7801 25.7248 22.0002C24.2414 24.2203 22.133 25.9506 19.6662 26.9724C17.1994 27.9942 14.485 28.2615 11.8663 27.7406C9.24754 27.2197 6.84207 25.934 4.95406 24.0459C3.06606 22.1579 1.78031 19.7525 1.25941 17.1337C0.738505 14.515 1.00585 11.8006 2.02763 9.33377C3.04942 6.86697 4.77974 4.75856 6.99981 3.27516Z" stroke="#38C971"/>
</svg>
